<svg xmlns="http://www.w3.org/2000/svg" width="1024" height="1024"><path d="M848.313 148.188c7.981 7.285 13.128 17.062 18.25 26.437 4.698 8.494 9.464 16.939 14.375 25.313a3949 3949 0 0 1 16.386 28.21l3.785 6.57q4.693 8.142 9.391 16.282l5.625 9.75 22.5 39 3.748 6.496a25831 25831 0 0 1 9.412 16.324A6120 6120 0 0 0 970 354l3.426 5.879a2495 2495 0 0 0 6.635 11.312q1.558 2.647 3.109 5.3 1.962 3.353 3.945 6.695c5.29 9.073 8.46 16.616 8.322 27.189l-.025 2.515c-.32 11.693-4.48 20.21-12.752 28.444-5.504 5.066-11.973 8.485-18.472 12.103q-1.853 1.044-3.705 2.09a4589 4589 0 0 1-7.651 4.31c-6.052 3.41-12.067 6.88-18.082 10.35l-3.222 1.852-5.901 3.4c-3.013 1.79-5.926 3.705-8.802 5.707-2.466 1.154-4.124 1.156-6.825.854-2.358-1.047-2.358-1.047-4.824-2.535l-2.826-1.68-3.038-1.848q-3.258-1.942-6.519-3.882l-3.4-2.036c-5.391-3.208-10.83-6.332-16.268-9.457l-6.555-3.777-3.288-1.894Q855.14 450.198 847 445.5l-6.5-3.75-39-22.5-3.252-1.876-6.478-3.738q-8.292-4.785-16.586-9.562l-3.394-1.955q-3.322-1.913-6.649-3.824c-4.709-2.708-9.4-5.431-14.024-8.283-17.403-10.701-34.36-15.679-54.726-10.918-15.312 4.092-27.926 13.22-36.176 26.86l-1.036 1.708c-3.424 5.68-6.724 11.433-9.994 17.204q-2.582 4.55-5.173 9.095l-1.033 1.815C638.366 443.878 633.685 451.94 629 460c-3.81-1.467-5.049-3.272-6.96-6.82l-1.657-3.024-1.758-3.281a4799 4799 0 0 0-3.777-6.887l-.971-1.775c-3.168-5.778-6.476-11.47-9.814-17.15l-3.5-5.973-1.77-3.02a3160 3160 0 0 1-9.23-15.945l-1.887-3.273-3.785-6.57a20045 20045 0 0 0-7.521-13.04q-1.86-3.226-3.718-6.454a1792 1792 0 0 0-8.772-15.098 2450 2450 0 0 1-3.12-5.32q-1.952-3.336-3.926-6.657c-4.989-8.544-8.42-16.028-8.271-26.026l.025-2.222c.364-11.856 4.621-20.757 13.01-29.043 5.55-5.16 11.695-8.657 18.34-12.235q3.375-1.853 6.75-3.71l3.296-1.808a419 419 0 0 0 11.453-6.606c6.97-4.137 13.978-8.204 21-12.25l3.356-1.934 6.812-3.923q8.199-4.726 16.395-9.456l6.5-3.75 3.25-1.875 65-37.5 6.496-3.748a25831 25831 0 0 1 16.324-9.412 7228 7228 0 0 0 37.922-21.996l2.706-1.578q3.002-1.759 5.993-3.536l3.204-1.894 2.901-1.725c15.835-8.702 35.249-7.05 49.016 4.702" fill="#52679C"/><path d="M114 542c2.358 1.047 2.358 1.047 4.824 2.535l2.826 1.68 3.037 1.847q3.26 1.944 6.52 3.883l3.4 2.036c5.391 3.208 10.83 6.332 16.268 9.457l9.843 5.67q8.142 4.694 16.282 9.392l6.5 3.75 39 22.5 9.73 5.614q8.292 4.785 16.586 9.562l3.394 1.955q3.322 1.913 6.649 3.824c4.709 2.708 9.4 5.431 14.024 8.283 17.403 10.701 34.36 15.679 54.726 10.918 16.743-4.475 29.242-14.805 37.977-29.683l1.116-1.953c1.558-2.724 3.135-5.436 4.712-8.149C379.343 591.453 387.176 577.728 395 564c3.911 1.48 5.143 3.443 7.102 7.066l1.718 3.133 1.805 3.364q1.894 3.458 3.793 6.914l1.865 3.41a400 400 0 0 0 6.654 11.55c4.138 6.97 8.204 13.978 12.25 21l1.934 3.356 3.923 6.812q3.796 6.586 7.594 13.168 1.86 3.222 3.716 6.444c2.888 5.01 5.78 10.018 8.689 15.016q1.527 2.625 3.05 5.251a2723 2723 0 0 0 3.81 6.54c8.834 15.235 14.785 27.6 11.449 45.445-2.099 6.958-5.406 12.245-10.352 17.531l-1.598 1.758c-5.53 5.416-12.437 8.746-19.183 12.39-5.646 3.058-11.183 6.29-16.719 9.54a4154 4154 0 0 1-25.375 14.75l-3.271 1.885-6.572 3.786Q383.14 788.802 375 793.5l-6.5 3.75-3.25 1.875-91.004 52.502-6.46 3.728a16804 16804 0 0 1-20.368 11.739q-3.308 1.905-6.617 3.808c-5.58 3.216-11.123 6.477-16.608 9.852-10.558 5.998-22.297 6.145-33.865 3.316-13.897-4.469-21.663-14.728-28.453-27.07q-1.471-2.613-2.945-5.225-1.499-2.662-2.99-5.33c-2.92-5.184-5.928-10.314-8.94-15.445-6.75-11.546-13.433-23.129-20.109-34.718Q122.198 788.14 117.5 780l-5.625-9.75L61.25 682.5l-1.877-3.254-3.726-6.46c-2.898-5.028-5.8-10.053-8.716-15.07l-3.074-5.298q-1.92-3.31-3.847-6.617c-8.189-14.134-14.082-25.969-10.822-42.774 3.341-12.45 11.249-21.339 22.25-27.715a682 682 0 0 1 6.904-3.838c4.036-2.238 8.026-4.553 12.02-6.864q3.33-1.924 6.662-3.838c5.488-3.153 10.947-6.341 16.359-9.624l3.032-1.83a652 652 0 0 0 5.644-3.458l2.554-1.544 2.212-1.36c2.65-1.165 4.304-1.3 7.175-.956" fill="#873564"/><path d="m723.375 438.563 2.07-.068c10.435.046 19.457 5.251 28.242 10.38l2.993 1.72A1879 1879 0 0 1 766 456l2.978 1.73q7.437 4.325 14.862 8.672c9.6 5.615 19.241 11.156 28.878 16.707q8.143 4.693 16.282 9.391l6.5 3.75 91 52.5 3.254 1.877q3.231 1.864 6.46 3.73c5.018 2.898 10.038 5.79 15.07 8.66q2.65 1.513 5.298 3.028 3.306 1.89 6.617 3.77c13.708 7.854 26.704 16.005 31.345 32.069.797 3.7.724 7.407.769 11.178l.087 2.413c.117 11.225-5.04 20.217-10.712 29.587q-1.89 3.178-3.774 6.356l-1.96 3.287c-3.18 5.362-6.284 10.766-9.391 16.17l-5.672 9.843Q959.198 688.86 954.5 697l-3.75 6.5-67.5 117-1.876 3.254a5067 5067 0 0 1-3.736 6.46 1190 1190 0 0 0-8.603 15.07q-1.486 2.653-2.982 5.298-1.862 3.3-3.692 6.617c-6.918 12.211-16.002 23.203-29.92 27.27-19.12 4.16-32.488-3.374-48.566-12.907l-6.254-3.675-3.258-1.917c-5.792-3.393-11.609-6.744-17.426-10.095l-3.295-1.9c-6.016-3.51-6.016-3.51-12.263-6.572-1.862-1.076-1.862-1.076-3.379-2.403-.73-3.03-.933-5.02-.86-8.056l-.024-2.48c-.018-2.747.014-5.492.045-8.239q-.005-2.952-.018-5.904-.018-6.362.023-12.726c.042-6.717.035-13.433.021-20.15-.015-10.636.002-21.272.033-31.909.055-19.012.064-38.024.047-57.037q-.006-9.999.035-19.999c.014-4.165.016-8.331.016-12.497q.003-2.88.023-5.758c.147-22.1-3.661-39.65-18.966-56.433-10.601-10.162-25-15.839-39.552-16.017l-2.13-.03q-3.465-.047-6.931-.081l-4.822-.063q-6.33-.082-12.66-.153-6.465-.077-12.93-.161-12.675-.162-25.35-.307c1.47-3.767 3.15-7.19 5.168-10.7l1.934-3.373 2.086-3.615 2.165-3.77q2.782-4.842 5.572-9.679 2.472-4.287 4.942-8.578 4.632-8.036 9.274-16.067 3.744-6.481 7.483-12.965l3.745-6.49a8827 8827 0 0 0 9.486-16.474Q671.405 485.632 677 476l1.71-2.951c1.586-2.73 3.186-5.454 4.79-8.174l1.382-2.384c5.47-9.198 11.49-15.685 21.118-20.491l2.043-1.035c4.963-2.064 10.01-2.296 15.332-2.402" fill="#B97A84"/><path d="M499 638q30.03-.142 60.059-.207 13.944-.028 27.888-.095 12.159-.06 24.318-.074c4.289-.006 8.578-.018 12.867-.047q6.065-.039 12.132-.03 2.215 0 4.432-.024c14.13-.14 24.08 2.76 34.398 12.442 10.086 10.406 12.058 22.184 12.046 36.116l.01 3.393q.01 5.63.011 11.26l.015 8.073q.02 10.968.024 21.937.005 6.855.012 13.708.019 18.993.026 37.986v4.914l.003 7.406q.007 19.82.045 39.637.035 20.368.037 40.736-.001 11.427.025 22.855.023 9.732.012 19.466-.007 4.96.011 9.92c.013 3.595.007 7.19-.004 10.785l.025 3.124c-.089 13.181-3.614 24.432-12.392 34.407-7.358 6.945-17.88 11.429-27.96 11.443l-2.967.012-3.237-.003-3.456.01q-5.745.01-11.492.011l-8.23.015q-11.187.02-22.376.024-6.99.005-13.978.012-19.36.019-38.719.026h-5.01l-7.553.003q-20.213.007-40.427.045-20.764.035-41.528.037-11.655-.001-23.308.025-9.924.023-19.85.012-5.06-.007-10.12.011c-3.663.013-7.326.007-10.99-.004l-3.203.025c-12.466-.083-23.036-4.128-32.346-12.517-11.297-12.071-11.545-27.124-11.445-42.598l.008-5.14q.014-6.724.05-13.45c.02-4.585.03-9.17.04-13.755.02-8.978.055-17.955.097-26.932l113.752-65.626 6.478-3.738q8.291-4.785 16.586-9.562a9671 9671 0 0 0 16.29-9.405 1684 1684 0 0 1 7.953-4.552c18.487-10.58 31.879-22.678 37.75-44.062C539.534 718.017 534.668 702.7 526 687l-1.53-2.795c-6.937-12.64-14.099-25.138-21.559-37.477l-1.56-2.6-1.38-2.278C499 640 499 640 499 638" fill="#BC5F6F"/><path d="m376.96 36.869 2.967-.012 3.237.003 3.456-.01q5.745-.01 11.492-.011l8.23-.015q11.187-.02 22.376-.024 6.99-.005 13.978-.012 19.36-.019 38.719-.026h5.01l5.032-.002h2.52q20.214-.009 40.428-.046 20.764-.035 41.528-.037 11.655.001 23.308-.025 9.924-.023 19.85-.012 5.06.007 10.12-.011c3.663-.013 7.326-.007 10.99.004l3.203-.025c12.466.083 23.036 4.128 32.346 12.517 11.297 12.071 11.545 27.124 11.445 42.598l-.008 5.14q-.014 6.724-.05 13.45c-.02 4.585-.03 9.17-.04 13.755Q687.065 137.535 687 151l-2.38 1.358-12.752 7.278A2484 2484 0 0 0 647 174a2594 2594 0 0 1-26 15 2962 2962 0 0 0-29.067 16.783 4054 4054 0 0 1-21.808 12.654l-3.254 1.876-13.275 7.647q-9.856 5.676-19.702 11.371a1684 1684 0 0 1-7.953 4.552c-17.708 10.137-31.044 21.3-36.976 41.672-4.496 19.114-.263 34.616 9.035 51.445.52.95 1.042 1.898 1.579 2.876 7.777 14.13 15.632 28.274 24.19 41.952C525 384 525 384 525 386q-30.03.142-60.059.207c-9.296.02-18.592.049-27.888.095q-12.159.06-24.318.074c-4.289.006-8.578.018-12.867.047q-6.065.039-12.132.03-2.215 0-4.432.024c-14.13.14-24.08-2.76-34.398-12.442-10.086-10.406-12.058-22.184-12.046-36.116l-.01-3.393q-.01-5.63-.011-11.26l-.015-8.073q-.02-10.968-.024-21.937-.005-6.855-.012-13.708a54625 54625 0 0 1-.026-37.986v-4.914l-.002-4.934v-2.472a27067 27067 0 0 0-.046-39.637q-.035-20.368-.037-40.736.001-11.427-.025-22.855-.023-9.732-.012-19.466.006-4.96-.011-9.92c-.013-3.595-.007-7.19.004-10.785l-.025-3.124c.089-13.181 3.614-24.432 12.392-34.407 7.358-6.945 17.88-11.429 27.96-11.443" fill="#2C408D"/><path d="m235.063 149.313 6.3 3.742 3.28 1.956c5.672 3.361 11.39 6.641 17.107 9.927 6.173 3.553 6.173 3.553 9.04 5.278 3.13 1.841 3.13 1.841 6.373 2.982 3.65 1.546 6.052 2.96 8.837 5.802 1.811 6.343 1.547 12.566 1.406 19.115q.003 2.953.02 5.906c.018 5.34-.038 10.678-.106 16.017-.058 5.6-.046 11.198-.04 16.797 0 10.615-.059 21.23-.14 31.845-.117 15.543-.159 31.087-.186 46.631l-.006 3.466-.011 6.846q-.02 9.98-.098 19.961-.043 6.234-.065 12.467-.015 2.873-.047 5.744c-.243 22.095 3.602 39.62 18.898 56.392 10.601 10.163 25 15.84 39.552 16.018l2.13.03q3.465.047 6.931.081l4.822.063q6.33.082 12.66.153 6.465.077 12.93.161 12.675.162 25.35.307c-1.47 3.767-3.15 7.19-5.168 10.7l-1.934 3.373-2.086 3.615-2.165 3.77a6415 6415 0 0 1-5.572 9.679q-2.472 4.288-4.942 8.578-4.633 8.037-9.274 16.067-3.744 6.483-7.484 12.968l-3.733 6.463a2147 2147 0 0 0-8.659 15.097 2904 2904 0 0 1-3.028 5.32q-1.893 3.324-3.77 6.657c-10.505 18.394-23.616 31.351-44.357 37.037-18.665 4.46-34.551-.274-50.828-9.324-.91-.5-1.82-1-2.759-1.514-13.51-7.422-26.853-15.128-40.151-22.923a3035 3035 0 0 0-18.965-11l-3.273-1.887-6.57-3.785Q177.14 521.198 169 516.5l-6.5-3.75-39-22.5-3.25-1.875-6.496-3.748a25831 25831 0 0 0-16.324-9.412A10114 10114 0 0 1 65.062 456.5l-2.885-1.67a565 565 0 0 1-14.095-8.467l-2.637-1.64C37.198 438.91 31.137 429.886 29 420c-.264-3.018-.277-6.035-.312-9.062l-.088-2.413c-.117-11.18 4.995-20.133 10.65-29.462q1.885-3.17 3.766-6.34l1.978-3.324c3.055-5.177 6.028-10.4 8.998-15.626a2879 2879 0 0 1 17.791-30.84c6.155-10.524 12.24-21.087 18.326-31.65Q94.802 283.138 99.5 275l3.75-6.5 37.5-65 1.876-3.254a5067 5067 0 0 1 3.736-6.46 1190 1190 0 0 0 8.603-15.07q1.487-2.653 2.982-5.298 1.862-3.3 3.692-6.617C168.897 153.989 178.422 143.09 193 139c15.464-3.639 29.112 2.474 42.063 10.313" fill="#4A256E"/></svg>